<?xml version="1.0" encoding="UTF-8"?>
<svg width="80px" height="79px" viewBox="0 0 80 79" version="1.1" xmlns="http://www.w3.org/2000/svg" xmlns:xlink="http://www.w3.org/1999/xlink">
    <!-- Generator: Sketch 63.1 (92452) - https://sketch.com -->
    <title>icn-table-panel</title>
    <desc>Created with Sketch.</desc>
    <defs>
        <linearGradient x1="0%" y1="50.040032%" x2="100%" y2="50.040032%" id="linearGradient-1">
            <stop stop-color="#F2CC0C" offset="0%"></stop>
            <stop stop-color="#FF9830" offset="100%"></stop>
        </linearGradient>
        <linearGradient x1="0%" y1="50.040032%" x2="100.041789%" y2="50.040032%" id="linearGradient-2">
            <stop stop-color="#F2CC0C" offset="0%"></stop>
            <stop stop-color="#FF9830" offset="100%"></stop>
        </linearGradient>
    </defs>
    <g id="Page-1" stroke="none" stroke-width="1" fill="none" fill-rule="evenodd">
        <g id="icn-table-panel" fill-rule="nonzero">
            <path d="M0,1 L0,12.49 L23.93,12.49 L23.93,0 L1,0 C0.44771525,0 0,0.44771525 0,1 Z" id="Path" fill="url(#linearGradient-1)"></path>
            <polygon id="Path" fill="url(#linearGradient-1)" points="0 49.48 0 61.97 23.93 61.97 23.93 49.48"></polygon>
            <polygon id="Path" fill="url(#linearGradient-1)" points="0 33 0 45.49 23.93 45.49 23.93 33"></polygon>
            <polygon id="Path" fill="url(#linearGradient-1)" points="0 16.49 0 28.98 23.93 28.98 23.93 16.49"></polygon>
            <path d="M0,66.98 L0,78.47 L23.93,78.47 L23.93,65.98 L1,65.98 C0.44771525,65.98 0,66.4277153 0,66.98 Z" id="Path" fill="url(#linearGradient-1)" transform="translate(11.965000, 72.225000) scale(1, -1) translate(-11.965000, -72.225000) "></path>
            <path d="M55.87,12.49 L79.8,12.49 L79.8,1 C79.8,0.44771525 79.3522847,0 78.8,0 L55.87,0 L55.87,12.49 Z" id="Path" fill="url(#linearGradient-1)"></path>
            <rect id="Rectangle" fill="url(#linearGradient-2)" x="27.93" y="0" width="23.93" height="12.49"></rect>
            <rect id="Rectangle" fill="#84AFF1" x="27.93" y="16.49" width="23.93" height="12.49"></rect>
            <rect id="Rectangle" fill="#84AFF1" x="55.87" y="16.49" width="23.93" height="12.49"></rect>
            <rect id="Rectangle" fill="#3865AB" x="55.87" y="32.99" width="23.93" height="12.5"></rect>
            <rect id="Rectangle" fill="#3865AB" x="27.93" y="32.99" width="23.93" height="12.5"></rect>
            <rect id="Rectangle" fill="#84AFF1" x="27.93" y="49.48" width="23.93" height="12.49"></rect>
            <rect id="Rectangle" fill="#84AFF1" x="55.87" y="49.48" width="23.93" height="12.49"></rect>
            <rect id="Rectangle" fill="#3865AB" x="27.93" y="65.98" width="23.93" height="12.49"></rect>
            <path d="M79.8,77.47 L79.8,66 L55.87,66 L55.87,78.47 L78.8,78.47 C79.3522847,78.47 79.8,78.0222847 79.8,77.47 Z" id="Path" fill="#3865AB"></path>
        </g>
    </g>
</svg>